<?xml version="1.0" encoding="UTF-8" standalone="no"?>
<svg xmlns="http://www.w3.org/2000/svg" xmlns:xlink="http://www.w3.org/1999/xlink" version="1.1" width="128" height="128" viewBox="0 0 128 128" xml:space="preserve">
<!-- Based on https://www.iconpacks.net/free-icon/red-book-4994.html -->
	<path
		d="M 14.816522,113.74257 V 14.227827 c 0,-7.4689805 6.054144,-13.5245303 13.524529,-13.5245303 h 75.282709 c 5.20131,0 9.41772,4.216405 9.41772,9.4177153 v 93.366468 c -1.06218,5.46685 -56.17331,7.3341 -98.224958,10.25509 z"
		style="fill:#ff6000;stroke-linecap:round"/>
	<path
		d="M 28.227246,0.7032967 V 110.46611 l -13.410724,3.27646 V 14.227827 c 0,-7.4689805 6.054144,-13.5245303 13.524529,-13.5245303"
		style="fill:#260c00;stroke-linecap:round"/>
	<path
		d="m 106.42814,106.64451 h 3.45489 c 1.74361,0 3.15704,-1.41343 3.15704,-3.15703 v 0 c 0,-1.74361 -1.41343,-3.15704 -3.15704,-3.15704 H 28.225842 c -7.407161,0 -13.410725,6.00357 -13.410725,13.41073 v 0 c 0,7.40716 6.003565,13.41072 13.410725,13.41072 h 81.657198 c 1.7436,0 3.15703,-1.41343 3.15703,-3.15703 v 0 c 0,-1.74361 -1.41343,-3.15704 -3.15703,-3.15704 h -3.4549 z"
		style="fill:#260c00;stroke-linecap:round"/>
	<path
		d="M 29.063221,120.84063 H 109.30137 V 106.64451 H 29.063221 c -3.91995,0 -7.09806,3.17811 -7.09806,7.09806 v 0 c 0,3.91995 3.17811,7.09806 7.09806,7.09806 z"
		style="fill:#fedcca;stroke-linecap:round"/>
	<path
		d="M 62.95,31.1 H 78.3 V 50.2 H 89.7 L 70.625,69.85 51.55,50.2 h 11.4 z"
		style="fill:#fedcca;stroke:#fedcca;stroke-width:6.35;stroke-linecap:round;stroke-linejoin:round"/>
</svg>
